ffmpeg started on 2026-01-04 at 17:26:48
Report written to "D:\Convert\FFMetrics\reports\ssim_report-2.txt"
Log level: 32
Command line:
ffmpeg -hide_banner -nostdin -r 24000/1001 -i "F:\\Convert\\files\\[DC] Make Heroine ga Oosugiru - 07_Telegram_HEVC(56).mkv" -i "F:\\Convert\\files\\[DC] Make Heroine ga Oosugiru - 07_Telegram.mp4" -lavfi "[0:v]fps=24000/1001[main];[1:v]fps=24000/1001[ref];[main][ref]ssim=stats_file='D\\:/Convert/FFMetrics/logs/ssim_logfile-2.txt'" -f null -
Input #0, matroska,webm, from 'F:\Convert\files\[DC] Make Heroine ga Oosugiru - 07_Telegram_HEVC(56).mkv':
  Metadata:
    COMPATIBLE_BRANDS: isomiso2avc1mp41
    MAJOR_BRAND     : isom
    MINOR_VERSION   : 512
    ENCODER         : Lavf61.7.100
  Duration: 00:24:06.79, start: -0.021000, bitrate: 981 kb/s
  Stream #0:0: Video: hevc (Main 10), yuv420p10le(tv, bt709, progressive), 1920x1080 [SAR 1:1 DAR 16:9], 23.98 fps, 23.98 tbr, 1k tbn (default)
      Metadata:
        HANDLER_NAME    : VideoHandler
        VENDOR_ID       : [0][0][0][0]
        ENCODER         : Lavc61.19.100 libx265
        BPS             : 784109
        DURATION        : 00:24:06.528708333
        NUMBER_OF_FRAMES: 34682
        NUMBER_OF_BYTES : 141779633
        _STATISTICS_WRITING_APP: mkvpropedit v94.0 ('Initiate') 64-bit
        _STATISTICS_WRITING_DATE_UTC: 2026-01-04 14:10:02
        _STATISTICS_TAGS: BPS DURATION NUMBER_OF_FRAMES NUMBER_OF_BYTES
  Stream #0:1: Audio: aac (LC), 48000 Hz, stereo, fltp (default)
      Metadata:
        HANDLER_NAME    : SoundHandler
        VENDOR_ID       : [0][0][0][0]
        ENCODER         : Lavc61.19.100 aac
        BPS             : 193194
        DURATION        : 00:24:06.784000000
        NUMBER_OF_FRAMES: 67819
        NUMBER_OF_BYTES : 34938755
        _STATISTICS_WRITING_APP: mkvpropedit v94.0 ('Initiate') 64-bit
        _STATISTICS_WRITING_DATE_UTC: 2026-01-04 14:10:02
        _STATISTICS_TAGS: BPS DURATION NUMBER_OF_FRAMES NUMBER_OF_BYTES
Input #1, mov,mp4,m4a,3gp,3g2,mj2, from 'F:\Convert\files\[DC] Make Heroine ga Oosugiru - 07_Telegram.mp4':
  Metadata:
    major_brand     : isom
    minor_version   : 512
    compatible_brands: isomiso2avc1mp41
    encoder         : Lavf60.16.100
  Duration: 00:24:06.74, start: 0.000000, bitrate: 3764 kb/s
  Stream #1:0[0x1](und): Video: h264 (High) (avc1 / 0x31637661), yuv420p(tv, bt709, progressive), 1920x1080 [SAR 1:1 DAR 16:9], 3616 kb/s, 23.98 fps, 23.98 tbr, 24k tbn (default)
      Metadata:
        handler_name    : VideoHandler
        vendor_id       : [0][0][0][0]
        encoder         : Lavc60.31.102 h264_qsv
  Stream #1:1[0x2](und): Audio: aac (HE-AACv2) (mp4a / 0x6134706D), 48000 Hz, stereo, fltp, 144 kb/s (default)
      Metadata:
        handler_name    : SoundHandler
        vendor_id       : [0][0][0][0]
Stream mapping:
  Stream #0:0 (hevc) -> fps:default
  Stream #1:0 (h264) -> fps:default
  ssim:default -> Stream #0:0 (wrapped_avframe)
  Stream #0:1 -> #0:1 (aac (native) -> pcm_s16le (native))
Output #0, null, to 'pipe:':
  Metadata:
    COMPATIBLE_BRANDS: isomiso2avc1mp41
    MAJOR_BRAND     : isom
    MINOR_VERSION   : 512
    encoder         : Lavf61.7.100
  Stream #0:0: Video: wrapped_avframe, yuv420p10le(tv, bt709, progressive), 1920x1080 [SAR 1:1 DAR 16:9], q=2-31, 200 kb/s, 23.98 fps, 23.98 tbn
      Metadata:
        encoder         : Lavc61.19.100 wrapped_avframe
  Stream #0:1: Audio: pcm_s16le, 48000 Hz, stereo, s16, 1536 kb/s (default)
      Metadata:
        HANDLER_NAME    : SoundHandler
        VENDOR_ID       : [0][0][0][0]
        _STATISTICS_TAGS: BPS DURATION NUMBER_OF_FRAMES NUMBER_OF_BYTES
        BPS             : 193194
        DURATION        : 00:24:06.784000000
        NUMBER_OF_FRAMES: 67819
        NUMBER_OF_BYTES : 34938755
        _STATISTICS_WRITING_APP: mkvpropedit v94.0 ('Initiate') 64-bit
        _STATISTICS_WRITING_DATE_UTC: 2026-01-04 14:10:02
        encoder         : Lavc61.19.100 pcm_s16le
frame=  189 fps=0.0 q=-0.0 size=N/A time=00:00:07.88 bitrate=N/A speed=15.3x    frame=  447 fps=437 q=-0.0 size=N/A time=00:00:18.64 bitrate=N/A speed=18.2x    frame=  744 fps=480 q=-0.0 size=N/A time=00:00:31.03 bitrate=N/A speed=  20x    frame=  944 fps=459 q=-0.0 size=N/A time=00:00:39.37 bitrate=N/A speed=19.2x    frame= 1131 fps=439 q=-0.0 size=N/A time=00:00:47.17 bitrate=N/A speed=18.3x    frame= 1314 fps=425 q=-0.0 size=N/A time=00:00:54.80 bitrate=N/A speed=17.7x    frame= 1506 fps=418 q=-0.0 size=N/A time=00:01:02.81 bitrate=N/A speed=17.4x    frame= 1670 fps=404 q=-0.0 size=N/A time=00:01:09.65 bitrate=N/A speed=16.9x    frame= 1862 fps=401 q=-0.0 size=N/A time=00:01:17.66 bitrate=N/A speed=16.7x    frame= 2049 fps=398 q=-0.0 size=N/A time=00:01:25.46 bitrate=N/A speed=16.6x    frame= 2188 fps=386 q=-0.0 size=N/A time=00:01:31.25 bitrate=N/A speed=16.1x    frame= 2359 fps=382 q=-0.0 size=N/A time=00:01:38.38 bitrate=N/A speed=15.9x    frame= 2512 fps=375 q=-0.0 size=N/A time=00:01:44.77 bitrate=N/A speed=15.6x    frame= 2698 fps=374 q=-0.0 size=N/A time=00:01:52.52 bitrate=N/A speed=15.6x    frame= 2910 fps=376 q=-0.0 size=N/A time=00:02:01.37 bitrate=N/A speed=15.7x    frame= 3171 fps=384 q=-0.0 size=N/A time=00:02:12.25 bitrate=N/A speed=  16x    frame= 3455 fps=394 q=-0.0 size=N/A time=00:02:24.10 bitrate=N/A speed=16.5x    frame= 3743 fps=403 q=-0.0 size=N/A time=00:02:36.11 bitrate=N/A speed=16.8x    frame= 4030 fps=411 q=-0.0 size=N/A time=00:02:48.08 bitrate=N/A speed=17.2x    frame= 4311 fps=418 q=-0.0 size=N/A time=00:02:59.80 bitrate=N/A speed=17.5x    frame= 4608 fps=426 q=-0.0 size=N/A time=00:03:12.19 bitrate=N/A speed=17.8x    frame= 4893 fps=432 q=-0.0 size=N/A time=00:03:24.12 bitrate=N/A speed=  18x    frame= 5184 fps=437 q=-0.0 size=N/A time=00:03:36.21 bitrate=N/A speed=18.2x    frame= 5469 fps=442 q=-0.0 size=N/A time=00:03:48.10 bitrate=N/A speed=18.4x    frame= 5751 fps=446 q=-0.0 size=N/A time=00:03:59.86 bitrate=N/A speed=18.6x    frame= 6039 fps=451 q=-0.0 size=N/A time=00:04:11.87 bitrate=N/A speed=18.8x    frame= 6321 fps=454 q=-0.0 size=N/A time=00:04:23.63 bitrate=N/A speed=18.9x    frame= 6599 fps=457 q=-0.0 size=N/A time=00:04:35.23 bitrate=N/A speed=19.1x    frame= 6888 fps=461 q=-0.0 size=N/A time=00:04:47.28 bitrate=N/A speed=19.2x    frame= 7146 fps=462 q=-0.0 size=N/A time=00:04:58.04 bitrate=N/A speed=19.3x    frame= 7424 fps=464 q=-0.0 size=N/A time=00:05:09.64 bitrate=N/A speed=19.4x    frame= 7653 fps=464 q=-0.0 size=N/A time=00:05:19.19 bitrate=N/A speed=19.3x    frame= 7916 fps=465 q=-0.0 size=N/A time=00:05:30.16 bitrate=N/A speed=19.4x    frame= 8182 fps=467 q=-0.0 size=N/A time=00:05:41.29 bitrate=N/A speed=19.5x    frame= 8453 fps=468 q=-0.0 size=N/A time=00:05:52.56 bitrate=N/A speed=19.5x    frame= 8729 fps=470 q=-0.0 size=N/A time=00:06:04.07 bitrate=N/A speed=19.6x    frame= 8994 fps=471 q=-0.0 size=N/A time=00:06:15.12 bitrate=N/A speed=19.7x    frame= 9271 fps=473 q=-0.0 size=N/A time=00:06:26.67 bitrate=N/A speed=19.7x    frame= 9542 fps=475 q=-0.0 size=N/A time=00:06:37.98 bitrate=N/A speed=19.8x    frame= 9817 fps=476 q=-0.0 size=N/A time=00:06:49.45 bitrate=N/A speed=19.9x    frame=10090 fps=477 q=-0.0 size=N/A time=00:07:00.83 bitrate=N/A speed=19.9x    frame=10354 fps=478 q=-0.0 size=N/A time=00:07:11.84 bitrate=N/A speed=19.9x    frame=10609 fps=479 q=-0.0 size=N/A time=00:07:22.48 bitrate=N/A speed=  20x    frame=10875 fps=479 q=-0.0 size=N/A time=00:07:33.57 bitrate=N/A speed=  20x    frame=11124 fps=479 q=-0.0 size=N/A time=00:07:43.96 bitrate=N/A speed=  20x    frame=11380 fps=480 q=-0.0 size=N/A time=00:07:54.64 bitrate=N/A speed=  20x    frame=11653 fps=481 q=-0.0 size=N/A time=00:08:06.02 bitrate=N/A speed=20.1x    frame=11922 fps=482 q=-0.0 size=N/A time=00:08:17.24 bitrate=N/A speed=20.1x    frame=12193 fps=482 q=-0.0 size=N/A time=00:08:28.54 bitrate=N/A speed=20.1x    frame=12475 fps=484 q=-0.0 size=N/A time=00:08:40.31 bitrate=N/A speed=20.2x    frame=12747 fps=485 q=-0.0 size=N/A time=00:08:51.65 bitrate=N/A speed=20.2x    frame=13034 fps=486 q=-0.0 size=N/A time=00:09:03.62 bitrate=N/A speed=20.3x    frame=13289 fps=486 q=-0.0 size=N/A time=00:09:14.26 bitrate=N/A speed=20.3x    frame=13535 fps=486 q=-0.0 size=N/A time=00:09:24.52 bitrate=N/A speed=20.3x    frame=13823 fps=487 q=-0.0 size=N/A time=00:09:36.53 bitrate=N/A speed=20.3x    frame=14066 fps=487 q=-0.0 size=N/A time=00:09:46.66 bitrate=N/A speed=20.3x    frame=14311 fps=487 q=-0.0 size=N/A time=00:09:56.92 bitrate=N/A speed=20.3x    frame=14574 fps=487 q=-0.0 size=N/A time=00:10:07.85 bitrate=N/A speed=20.3x    frame=14836 fps=488 q=-0.0 size=N/A time=00:10:18.78 bitrate=N/A speed=20.3x    frame=15076 fps=487 q=-0.0 size=N/A time=00:10:28.79 bitrate=N/A speed=20.3x    frame=15295 fps=486 q=-0.0 size=N/A time=00:10:37.92 bitrate=N/A speed=20.3x    frame=15563 fps=487 q=-0.0 size=N/A time=00:10:49.10 bitrate=N/A speed=20.3x    frame=15843 fps=488 q=-0.0 size=N/A time=00:11:00.78 bitrate=N/A speed=20.3x    frame=16129 fps=489 q=-0.0 size=N/A time=00:11:12.71 bitrate=N/A speed=20.4x    frame=16408 fps=490 q=-0.0 size=N/A time=00:11:24.35 bitrate=N/A speed=20.4x    frame=16676 fps=490 q=-0.0 size=N/A time=00:11:35.52 bitrate=N/A speed=20.4x    frame=16966 fps=491 q=-0.0 size=N/A time=00:11:47.62 bitrate=N/A speed=20.5x    frame=17256 fps=492 q=-0.0 size=N/A time=00:11:59.71 bitrate=N/A speed=20.5x    frame=17522 fps=492 q=-0.0 size=N/A time=00:12:10.81 bitrate=N/A speed=20.5x    frame=17767 fps=492 q=-0.0 size=N/A time=00:12:21.03 bitrate=N/A speed=20.5x    frame=18050 fps=493 q=-0.0 size=N/A time=00:12:32.83 bitrate=N/A speed=20.6x    frame=18286 fps=492 q=-0.0 size=N/A time=00:12:42.67 bitrate=N/A speed=20.5x    frame=18544 fps=493 q=-0.0 size=N/A time=00:12:53.43 bitrate=N/A speed=20.5x    frame=18836 fps=493 q=-0.0 size=N/A time=00:13:05.61 bitrate=N/A speed=20.6x    frame=19121 fps=494 q=-0.0 size=N/A time=00:13:17.50 bitrate=N/A speed=20.6x    frame=19414 fps=495 q=-0.0 size=N/A time=00:13:29.72 bitrate=N/A speed=20.7x    frame=19698 fps=496 q=-0.0 size=N/A time=00:13:41.57 bitrate=N/A speed=20.7x    frame=19939 fps=496 q=-0.0 size=N/A time=00:13:51.62 bitrate=N/A speed=20.7x    frame=20228 fps=496 q=-0.0 size=N/A time=00:14:03.67 bitrate=N/A speed=20.7x    frame=20487 fps=496 q=-0.0 size=N/A time=00:14:14.47 bitrate=N/A speed=20.7x    frame=20735 fps=496 q=-0.0 size=N/A time=00:14:24.82 bitrate=N/A speed=20.7x    frame=21016 fps=497 q=-0.0 size=N/A time=00:14:36.54 bitrate=N/A speed=20.7x    frame=21302 fps=497 q=-0.0 size=N/A time=00:14:48.47 bitrate=N/A speed=20.7x    frame=21578 fps=498 q=-0.0 size=N/A time=00:14:59.98 bitrate=N/A speed=20.8x    frame=21862 fps=498 q=-0.0 size=N/A time=00:15:11.82 bitrate=N/A speed=20.8x    frame=22149 fps=499 q=-0.0 size=N/A time=00:15:23.79 bitrate=N/A speed=20.8x    frame=22446 fps=500 q=-0.0 size=N/A time=00:15:36.18 bitrate=N/A speed=20.8x    frame=22724 fps=500 q=-0.0 size=N/A time=00:15:47.78 bitrate=N/A speed=20.9x    frame=22983 fps=500 q=-0.0 size=N/A time=00:15:58.58 bitrate=N/A speed=20.9x    frame=23263 fps=501 q=-0.0 size=N/A time=00:16:10.26 bitrate=N/A speed=20.9x    frame=23557 fps=501 q=-0.0 size=N/A time=00:16:22.52 bitrate=N/A speed=20.9x    frame=23842 fps=502 q=-0.0 size=N/A time=00:16:34.41 bitrate=N/A speed=20.9x    frame=24116 fps=502 q=-0.0 size=N/A time=00:16:45.83 bitrate=N/A speed=  21x    frame=24383 fps=503 q=-0.0 size=N/A time=00:16:56.97 bitrate=N/A speed=  21x    frame=24675 fps=503 q=-0.0 size=N/A time=00:17:09.15 bitrate=N/A speed=  21x    frame=24955 fps=504 q=-0.0 size=N/A time=00:17:20.83 bitrate=N/A speed=  21x    frame=25246 fps=504 q=-0.0 size=N/A time=00:17:32.96 bitrate=N/A speed=  21x    frame=25526 fps=505 q=-0.0 size=N/A time=00:17:44.64 bitrate=N/A speed=21.1x    frame=25799 fps=505 q=-0.0 size=N/A time=00:17:56.03 bitrate=N/A speed=21.1x    frame=26081 fps=505 q=-0.0 size=N/A time=00:18:07.79 bitrate=N/A speed=21.1x    frame=26363 fps=506 q=-0.0 size=N/A time=00:18:19.55 bitrate=N/A speed=21.1x    frame=26653 fps=506 q=-0.0 size=N/A time=00:18:31.65 bitrate=N/A speed=21.1x    frame=26915 fps=506 q=-0.0 size=N/A time=00:18:42.57 bitrate=N/A speed=21.1x    frame=27144 fps=506 q=-0.0 size=N/A time=00:18:52.13 bitrate=N/A speed=21.1x    frame=27388 fps=506 q=-0.0 size=N/A time=00:19:02.30 bitrate=N/A speed=21.1x    frame=27652 fps=505 q=-0.0 size=N/A time=00:19:13.31 bitrate=N/A speed=21.1x    frame=27906 fps=505 q=-0.0 size=N/A time=00:19:23.91 bitrate=N/A speed=21.1x    frame=28158 fps=505 q=-0.0 size=N/A time=00:19:34.42 bitrate=N/A speed=21.1x    frame=28421 fps=505 q=-0.0 size=N/A time=00:19:45.39 bitrate=N/A speed=21.1x    frame=28687 fps=505 q=-0.0 size=N/A time=00:19:56.48 bitrate=N/A speed=21.1x    frame=28893 fps=504 q=-0.0 size=N/A time=00:20:05.07 bitrate=N/A speed=  21x    frame=29113 fps=504 q=-0.0 size=N/A time=00:20:14.25 bitrate=N/A speed=  21x    frame=29357 fps=503 q=-0.0 size=N/A time=00:20:24.43 bitrate=N/A speed=  21x    frame=29565 fps=503 q=-0.0 size=N/A time=00:20:33.10 bitrate=N/A speed=  21x    frame=29780 fps=502 q=-0.0 size=N/A time=00:20:42.07 bitrate=N/A speed=20.9x    frame=29987 fps=501 q=-0.0 size=N/A time=00:20:50.70 bitrate=N/A speed=20.9x    frame=30214 fps=500 q=-0.0 size=N/A time=00:21:00.17 bitrate=N/A speed=20.9x    frame=30468 fps=500 q=-0.0 size=N/A time=00:21:10.76 bitrate=N/A speed=20.9x    frame=30740 fps=501 q=-0.0 size=N/A time=00:21:22.11 bitrate=N/A speed=20.9x    frame=31010 fps=501 q=-0.0 size=N/A time=00:21:33.37 bitrate=N/A speed=20.9x    frame=31272 fps=501 q=-0.0 size=N/A time=00:21:44.30 bitrate=N/A speed=20.9x    frame=31527 fps=501 q=-0.0 size=N/A time=00:21:54.93 bitrate=N/A speed=20.9x    frame=31780 fps=501 q=-0.0 size=N/A time=00:22:05.49 bitrate=N/A speed=20.9x    frame=32010 fps=500 q=-0.0 size=N/A time=00:22:15.08 bitrate=N/A speed=20.9x    frame=32283 fps=500 q=-0.0 size=N/A time=00:22:26.47 bitrate=N/A speed=20.9x    frame=32556 fps=501 q=-0.0 size=N/A time=00:22:37.85 bitrate=N/A speed=20.9x    frame=32734 fps=500 q=-0.0 size=N/A time=00:22:45.28 bitrate=N/A speed=20.8x    frame=32926 fps=499 q=-0.0 size=N/A time=00:22:53.28 bitrate=N/A speed=20.8x    frame=33155 fps=498 q=-0.0 size=N/A time=00:23:02.83 bitrate=N/A speed=20.8x    frame=33377 fps=498 q=-0.0 size=N/A time=00:23:12.09 bitrate=N/A speed=20.8x    frame=33562 fps=496 q=-0.0 size=N/A time=00:23:19.81 bitrate=N/A speed=20.7x    frame=33734 fps=495 q=-0.0 size=N/A time=00:23:26.98 bitrate=N/A speed=20.7x    frame=33872 fps=494 q=-0.0 size=N/A time=00:23:32.74 bitrate=N/A speed=20.6x    frame=34053 fps=493 q=-0.0 size=N/A time=00:23:40.29 bitrate=N/A speed=20.5x    frame=34246 fps=492 q=-0.0 size=N/A time=00:23:48.34 bitrate=N/A speed=20.5x    frame=34394 fps=490 q=-0.0 size=N/A time=00:23:54.51 bitrate=N/A speed=20.4x    frame=34598 fps=489 q=-0.0 size=N/A time=00:24:03.02 bitrate=N/A speed=20.4x    [Parsed_ssim_2 @ 00000191fb2c6b00] SSIM Y:0.994162 (22.337184) U:0.993977 (22.201917) V:0.993585 (21.928245) All:0.994035 (22.243827)
[out#0/null @ 00000191fadf4900] video:14903KiB audio:271276KiB subtitle:0KiB other streams:0KiB global headers:0KiB muxing overhead: unknown
frame=34683 fps=489 q=-0.0 Lsize=N/A time=00:24:06.57 bitrate=N/A speed=20.4x    
